<svg xmlns="http://www.w3.org/2000/svg" width="24" height="24" fill="none" viewBox="0 0 24 24"><path fill-rule="evenodd" stroke="#200E32" stroke-linecap="round" stroke-linejoin="round" stroke-width="1.5" d="M9.87743 15.2062C6.03343 15.2062 2.75043 15.7872 2.75043 18.1152C2.75043 20.4422 6.01243 21.0452 9.87743 21.0452C13.7214 21.0452 17.0044 20.4632 17.0044 18.1362C17.0044 15.8092 13.7424 15.2062 9.87743 15.2062Z" clip-rule="evenodd"/><path fill-rule="evenodd" stroke="#200E32" stroke-linecap="round" stroke-linejoin="round" stroke-width="1.5" d="M9.87745 11.8859C12.4134 11.8859 14.4454 9.85291 14.4454 7.31791C14.4454 4.78191 12.4134 2.74991 9.87745 2.74991C7.34245 2.74991 5.30945 4.78191 5.30945 7.31791C5.30945 9.85291 7.34245 11.8859 9.87745 11.8859Z" clip-rule="evenodd"/><path stroke="#200E32" stroke-linecap="round" stroke-linejoin="round" stroke-width="1.5" d="M19.2041 8.6691V12.6791"/><path stroke="#200E32" stroke-linecap="round" stroke-linejoin="round" stroke-width="1.5" d="M21.25 10.674H17.16"/></svg>