<svg xmlns="http://www.w3.org/2000/svg" width="24" height="24" fill="none" viewBox="0 0 24 24"><path fill-rule="evenodd" stroke="#200E32" stroke-linecap="round" stroke-linejoin="round" stroke-width="1.5" d="M16.3344 2.75021H7.66543C4.64443 2.75021 2.75043 4.88921 2.75043 7.91621V16.0842C2.75043 19.1112 4.63543 21.2502 7.66543 21.2502H16.3334C19.3644 21.2502 21.2504 19.1112 21.2504 16.0842V7.91621C21.2504 4.88921 19.3644 2.75021 16.3344 2.75021Z" clip-rule="evenodd"/><path fill-rule="evenodd" stroke="#200E32" stroke-linecap="round" stroke-linejoin="round" stroke-width="1.5" d="M10.6923 12.0002C10.6923 13.0222 9.86332 13.8522 8.84032 13.8522C7.81832 13.8522 6.98932 13.0222 6.98932 12.0002C6.98932 10.9782 7.81832 10.1482 8.84032 10.1482C9.86332 10.1482 10.6923 10.9782 10.6923 12.0002Z" clip-rule="evenodd"/><path stroke="#200E32" stroke-linecap="round" stroke-linejoin="round" stroke-width="1.5" d="M10.6923 12.0002H17.0103V13.8522"/><path stroke="#200E32" stroke-linecap="round" stroke-linejoin="round" stroke-width="1.5" d="M14.1816 13.8517V11.9997"/></svg>