<svg xmlns="http://www.w3.org/2000/svg" id="Iconly_Curved_Category" width="24" height="24" data-name="Iconly/Curved/Category" viewBox="0 0 24 24"><g id="Category" transform="translate(3 3)"><path id="Stroke_1" fill="none" stroke="#000" stroke-linecap="round" stroke-linejoin="round" stroke-miterlimit="10" stroke-width="1.5" d="M7.347,3.674A3.673,3.673,0,1,1,3.673,0,3.674,3.674,0,0,1,7.347,3.674Z" data-name="Stroke 1" transform="translate(10.654 0)"/><path id="Stroke_3" fill="none" stroke="#000" stroke-linecap="round" stroke-linejoin="round" stroke-miterlimit="10" stroke-width="1.5" d="M7.347,3.674A3.673,3.673,0,1,1,3.673,0,3.674,3.674,0,0,1,7.347,3.674Z" data-name="Stroke 3" transform="translate(0 0)"/><path id="Stroke_5" fill="none" stroke="#000" stroke-linecap="round" stroke-linejoin="round" stroke-miterlimit="10" stroke-width="1.5" d="M7.347,3.674A3.673,3.673,0,1,1,3.673,0,3.674,3.674,0,0,1,7.347,3.674Z" data-name="Stroke 5" transform="translate(10.654 10.588)"/><path id="Stroke_7" fill="none" stroke="#000" stroke-linecap="round" stroke-linejoin="round" stroke-miterlimit="10" stroke-width="1.5" d="M7.347,3.674A3.673,3.673,0,1,1,3.673,0,3.673,3.673,0,0,1,7.347,3.674Z" data-name="Stroke 7" transform="translate(0 10.588)"/></g></svg>