<svg xmlns="http://www.w3.org/2000/svg" id="Iconly_Curved_Edit_Square" width="24" height="24" data-name="Iconly/Curved/Edit Square" viewBox="0 0 24 24"><g id="Edit_Square" data-name="Edit Square" transform="translate(2 2)"><path id="Stroke_1" fill="none" stroke="#000" stroke-linecap="round" stroke-linejoin="round" stroke-miterlimit="10" stroke-width="1.5" d="M9.25,0C2.313,0,0,2.313,0,9.25S2.313,18.5,9.25,18.5s9.25-2.313,9.25-9.25" data-name="Stroke 1" transform="translate(0.75 0.75)"/><path id="Stroke_3" fill="none" stroke="#000" stroke-linecap="round" stroke-linejoin="round" stroke-miterlimit="10" stroke-width="1.5" d="M10.071.6h0A2.4,2.4,0,0,0,6.682.809S2.313,5.744.8,7.457s-.4,4.077-.4,4.077,2.5.793,4-.9l5.886-6.647A2.4,2.4,0,0,0,10.071.6Z" data-name="Stroke 3" transform="translate(7.457 1.7)"/><path id="Stroke_5" fill="none" stroke="#000" stroke-linecap="round" stroke-linejoin="round" stroke-miterlimit="10" stroke-width="1.5" d="M0,0,3.6,3.183" data-name="Stroke 5" transform="translate(13.009 3.801)"/></g></svg>