<svg xmlns="http://www.w3.org/2000/svg" id="Iconly_Curved_Paper" width="24" height="24" data-name="Iconly/Curved/Paper" viewBox="0 0 24 24"><g id="Paper" transform="translate(3.65 2.75)"><path id="Stroke_1" fill="none" stroke="#000" stroke-linecap="round" stroke-linejoin="round" stroke-miterlimit="10" stroke-width="1.5" d="M5.4.5H0" data-name="Stroke 1" transform="translate(5.255 12.2)"/><path id="Stroke_2" fill="none" stroke="#000" stroke-linecap="round" stroke-linejoin="round" stroke-miterlimit="10" stroke-width="1.5" d="M3.356.5H0" data-name="Stroke 2" transform="translate(5.255 8.189)"/><path id="Stroke_3" fill="none" stroke="#000" stroke-linecap="round" stroke-linejoin="round" stroke-miterlimit="10" stroke-width="1.5" d="M16.51,5.55,10.84.15A18.2,18.2,0,0,0,8.39,0C2.1,0,0,2.32,0,9.25S2.1,18.5,8.39,18.5s8.4-2.31,8.4-9.25A21.045,21.045,0,0,0,16.51,5.55Z" data-name="Stroke 3" transform="translate(0)"/><path id="Stroke_5" fill="none" stroke="#000" stroke-linecap="round" stroke-linejoin="round" stroke-miterlimit="10" stroke-width="1.5" d="M0,0V2.661A3.363,3.363,0,0,0,3.364,6.024H6.315" data-name="Stroke 5" transform="translate(10.284 0.083)"/></g></svg>