<svg xmlns="http://www.w3.org/2000/svg" id="Iconly_Curved_Scan" width="24" height="24" data-name="Iconly/Curved/Scan" viewBox="0 0 24 24"><g id="Scan" transform="translate(1.45 2.95)"><path id="Stroke_1" fill="none" stroke="#000" stroke-linecap="round" stroke-linejoin="round" stroke-miterlimit="10" stroke-width="1.5" d="M21.132.5H0" data-name="Stroke 1" transform="translate(0 9.35)"/><path id="Stroke_3" fill="none" stroke="#000" stroke-linecap="round" stroke-linejoin="round" stroke-miterlimit="10" stroke-width="1.5" d="M0,5.77C.57,2.29,2.29.57,5.77,0" data-name="Stroke 3" transform="translate(1.546 0)"/><path id="Stroke_5" fill="none" stroke="#000" stroke-linecap="round" stroke-linejoin="round" stroke-miterlimit="10" stroke-width="1.5" d="M5.981,8.186C2.5,7.606.781,5.9.211,2.416v0A17.035,17.035,0,0,1,0,0" data-name="Stroke 5" transform="translate(1.335 9.854)"/><path id="Stroke_7" fill="none" stroke="#000" stroke-linecap="round" stroke-linejoin="round" stroke-miterlimit="10" stroke-width="1.5" d="M5.979,0a17.183,17.183,0,0,1-.21,2.42l0,0C5.2,5.9,3.48,7.606,0,8.186" data-name="Stroke 7" transform="translate(13.816 9.854)"/><path id="Stroke_9" fill="none" stroke="#000" stroke-linecap="round" stroke-linejoin="round" stroke-miterlimit="10" stroke-width="1.5" d="M0,0C3.48.57,5.2,2.29,5.77,5.77" data-name="Stroke 9" transform="translate(13.816 0)"/></g></svg>