<svg xmlns="http://www.w3.org/2000/svg" id="Iconly_Curved_2_User" width="24" height="24" data-name="Iconly/Curved/2 User" viewBox="0 0 24 24"><g id="_2_User" data-name="2 User" transform="translate(2.75 2.549)"><path id="Stroke_1" fill="none" stroke="#000" stroke-linecap="round" stroke-linejoin="round" stroke-miterlimit="10" stroke-width="1.5" d="M6.809,7.007C3.137,7.007,0,6.452,0,4.228S3.117,0,6.809,0c3.672,0,6.808,1.985,6.808,4.208S10.5,7.007,6.809,7.007Z" data-name="Stroke 1" transform="translate(0 11.9)"/><path id="Stroke_3" fill="none" stroke="#000" stroke-linecap="round" stroke-linejoin="round" stroke-miterlimit="10" stroke-width="1.5" d="M4.364,8.728a4.349,4.349,0,1,0-.031,0Z" data-name="Stroke 3" transform="translate(2.445 0)"/><path id="Stroke_5" fill="none" stroke="#000" stroke-linecap="round" stroke-linejoin="round" stroke-miterlimit="10" stroke-width="1.5" d="M.187,6.4A3.289,3.289,0,0,0,2.624,3.221,3.288,3.288,0,0,0,0,0" data-name="Stroke 5" transform="translate(13.865 1.132)"/><path id="Stroke_7" fill="none" stroke="#000" stroke-linecap="round" stroke-linejoin="round" stroke-miterlimit="10" stroke-width="1.5" d="M0,0C1.988,0,3.686,1.348,3.686,2.551A1.814,1.814,0,0,1,2.211,4.2" data-name="Stroke 7" transform="translate(14.711 11.104)"/></g></svg>