<svg xmlns="http://www.w3.org/2000/svg" id="Iconly_Curved_Volume_Off" width="24" height="24" data-name="Iconly/Curved/Volume Off" viewBox="0 0 24 24"><g id="Volume_Off" data-name="Volume Off" transform="translate(4 4)"><path id="Stroke_1" fill="none" stroke="#000" stroke-linecap="round" stroke-linejoin="round" stroke-miterlimit="10" stroke-width="1.5" d="M3.732,11.008c-1.083-.251-1.816-.054-2.72-.814C0,9.335-.008,7.895,0,6.669-.008,5.443,0,4,1.012,3.144s1.816-.51,3.132-.939,3.141-3.1,5.172-1.9c.823.582,1.306,1.53,1.5,3.615" data-name="Stroke 1" transform="translate(0.671 1.545)"/><path id="Stroke_3" fill="none" stroke="#000" stroke-linecap="round" stroke-linejoin="round" stroke-miterlimit="10" stroke-width="1.5" d="M4.509,0c-.116,3.006-.635,4.214-1.593,4.894A2.583,2.583,0,0,1,0,4.509" data-name="Stroke 3" transform="translate(7.07 9.672)"/><path id="Stroke_5" fill="none" stroke="#000" stroke-linecap="round" stroke-linejoin="round" stroke-miterlimit="10" stroke-width="1.5" d="M15.345,0,0,15.345" data-name="Stroke 5" transform="translate(0.941 0.671)"/></g></svg>